<svg width="179" height="37" viewBox="0 0 179 37" fill="none" xmlns="http://www.w3.org/2000/svg">
<path d="M29.9831 3.87178C30.0201 3.61216 29.9962 3.34748 29.9133 3.09868C29.8303 2.84989 29.6907 2.62381 29.5052 2.43834C29.3365 2.27646 29.1339 2.1542 28.912 2.08043C28.6901 2.00665 28.4546 1.98322 28.2225 2.01183C18.5636 3.18552 13.0319 7.5115 9.86998 11.7701L8.39164 11.6932C7.8597 11.6657 7.32791 11.7503 6.83074 11.9414C6.33356 12.1326 5.88207 12.426 5.50552 12.8027L3.19662 15.1116C3.16885 15.1395 3.14836 15.1738 3.13694 15.2115C3.12552 15.2492 3.12352 15.2891 3.13112 15.3277C3.13872 15.3663 3.15568 15.4025 3.18052 15.433C3.20536 15.4636 3.23732 15.4876 3.27358 15.5029L6.955 17.0293C6.53967 18.0767 6.20833 19.1554 5.96409 20.2553C5.92151 20.4504 5.92855 20.653 5.98458 20.8446C6.04061 21.0362 6.14382 21.2107 6.28477 21.3521L10.6524 25.7069C10.7938 25.8479 10.9683 25.9511 11.1599 26.0071C11.3515 26.0631 11.5541 26.0702 11.7492 26.0276C12.8491 25.7833 13.9278 25.4519 14.9752 25.0367L16.5017 28.7181C16.517 28.7544 16.5409 28.7863 16.5715 28.8112C16.602 28.836 16.6382 28.853 16.6768 28.8606C16.7154 28.8682 16.7553 28.8662 16.793 28.8547C16.8307 28.8433 16.865 28.8228 16.8929 28.7951L19.2018 26.4862C19.5784 26.1095 19.8717 25.658 20.0628 25.1608C20.2539 24.6637 20.3386 24.132 20.3113 23.6L20.2344 22.1217C24.4834 18.9951 28.7901 13.473 29.9831 3.87178ZM17.7972 17.1319C17.508 17.4213 17.1394 17.6183 16.7382 17.6982C16.3369 17.7781 15.921 17.7372 15.543 17.5806C15.165 17.4241 14.8419 17.159 14.6146 16.8188C14.3873 16.4787 14.266 16.0787 14.266 15.6696C14.266 15.2605 14.3873 14.8606 14.6146 14.5204C14.8419 14.1802 15.165 13.9151 15.543 13.7586C15.921 13.6021 16.3369 13.5612 16.7382 13.641C17.1394 13.7209 17.508 13.918 17.7972 14.2073C18.1844 14.5946 18.4022 15.1197 18.4028 15.6673C18.4034 16.215 18.1867 16.7405 17.8004 17.1287L17.7972 17.1319ZM19.0799 12.9374C18.6989 12.5568 18.4393 12.0717 18.334 11.5435C18.2287 11.0152 18.2824 10.4677 18.4884 9.97001C18.6944 9.47235 19.0433 9.04696 19.4911 8.74766C19.9389 8.44837 20.4654 8.28862 21.004 8.28862C21.5426 8.28862 22.0691 8.44837 22.5169 8.74766C22.9647 9.04696 23.3137 9.47235 23.5196 9.97001C23.7256 10.4677 23.7793 11.0152 23.674 11.5435C23.5688 12.0717 23.3092 12.5568 22.9281 12.9374C22.6749 13.1911 22.3742 13.3924 22.043 13.5296C21.7119 13.6668 21.357 13.7373 20.9985 13.737C20.6401 13.7367 20.2853 13.6656 19.9544 13.5279C19.6235 13.3901 19.323 13.1884 19.0703 12.9342L19.0799 12.9374ZM2.46226 26.4958C1.81582 26.2706 1.12233 26.2154 0.448389 26.3354C0.390883 26.3457 0.331756 26.342 0.275962 26.3247C0.220168 26.3074 0.16933 26.277 0.127708 26.236C0.0735577 26.1829 0.0371114 26.1144 0.0233384 26.0398C0.00956534 25.9652 0.0191359 25.8881 0.0507452 25.8191C0.749829 24.2703 2.67391 21.1565 6.12123 23.6706C6.13912 23.6868 6.15343 23.7066 6.16322 23.7287C6.17301 23.7508 6.17806 23.7747 6.17806 23.7989C6.17806 23.823 6.17301 23.8469 6.16322 23.869C6.15343 23.8911 6.13912 23.9109 6.12123 23.9271C5.65577 24.2919 5.28304 24.7614 5.03339 25.2975C4.78374 25.8336 4.66422 26.4211 4.68458 27.0121C4.68697 27.0811 4.71545 27.1466 4.76425 27.1954C4.81306 27.2442 4.87856 27.2726 4.94754 27.275C5.53453 27.2985 6.11885 27.184 6.65352 26.9406C7.1882 26.6972 7.65831 26.3318 8.02607 25.8737C8.04232 25.8541 8.06267 25.8384 8.08566 25.8277C8.10866 25.8169 8.13375 25.8113 8.15915 25.8113C8.18455 25.8113 8.20964 25.8169 8.23264 25.8277C8.25564 25.8384 8.27598 25.8541 8.29223 25.8737C8.77325 26.4477 10.0945 28.3108 8.63215 30.1131C7.98822 30.8829 7.06608 31.3671 6.06671 31.4599C4.63968 31.6171 2.01652 32.066 0.935823 33.3006C0.89308 33.3531 0.836724 33.3928 0.772928 33.4154C0.709131 33.4379 0.640353 33.4425 0.574126 33.4286C0.507898 33.4147 0.446774 33.3828 0.397447 33.3365C0.34812 33.2902 0.312491 33.2312 0.294462 33.1659C-0.0711134 31.8704 -0.645131 28.9843 2.46226 26.4958Z" fill="white"/>
<path d="M50.7119 29.293C48.4463 29.293 46.542 28.7705 44.999 27.7256C43.4658 26.6807 42.5381 25.2305 42.2158 23.375L46.127 22.4668C46.3027 23.6387 46.8154 24.5469 47.665 25.1914C48.5244 25.8262 49.5889 26.1436 50.8584 26.1436C51.9229 26.1436 52.7969 25.9043 53.4805 25.4258C54.1738 24.9473 54.5156 24.2197 54.5059 23.2432C54.5059 22.9502 54.4521 22.6768 54.3447 22.4229C54.2471 22.1592 54.125 21.9346 53.9785 21.749C53.832 21.5537 53.6172 21.3682 53.334 21.1924C53.0605 21.0068 52.8066 20.8555 52.5723 20.7383C52.3477 20.6113 52.0352 20.4795 51.6348 20.3428C51.2344 20.2061 50.8975 20.0986 50.624 20.0205C50.3506 19.9326 49.9844 19.8203 49.5254 19.6836C49.4375 19.6543 49.3691 19.6348 49.3203 19.625C48.7637 19.459 48.3096 19.3223 47.958 19.2148C47.6064 19.0977 47.1816 18.9365 46.6836 18.7314C46.1855 18.5264 45.7754 18.3262 45.4531 18.1309C45.1406 17.9355 44.8037 17.6865 44.4424 17.3838C44.0908 17.0811 43.8125 16.7637 43.6074 16.4316C43.4121 16.0898 43.2461 15.6895 43.1094 15.2305C42.9727 14.7715 42.9043 14.2734 42.9043 13.7363C42.9043 12.4766 43.2266 11.3877 43.8711 10.4697C44.5254 9.54199 45.3945 8.85352 46.4785 8.4043C47.5625 7.95508 48.793 7.73047 50.1699 7.73047C51.1172 7.73047 52.0156 7.83301 52.8652 8.03809C53.7246 8.24316 54.5205 8.55566 55.2529 8.97559C55.9951 9.38574 56.625 9.94727 57.1426 10.6602C57.6699 11.3633 58.0312 12.1787 58.2266 13.1064L54.5645 14.0146C54.3496 12.96 53.8711 12.1738 53.1289 11.6562C52.3965 11.1289 51.4785 10.8652 50.375 10.8652C49.3398 10.8652 48.4756 11.0996 47.7822 11.5684C47.0889 12.0273 46.7422 12.7256 46.7422 13.6631C46.7422 14.0146 46.8252 14.332 46.9912 14.6152C47.1572 14.8984 47.3672 15.1377 47.6211 15.333C47.8848 15.5186 48.2266 15.7041 48.6465 15.8896C49.0762 16.0654 49.4814 16.2168 49.8623 16.3438C50.2529 16.4609 50.7314 16.5977 51.2979 16.7539C51.3467 16.7637 51.3857 16.7734 51.415 16.7832C52.2646 17.0273 52.9336 17.2324 53.4219 17.3984C53.9102 17.5645 54.5156 17.8281 55.2383 18.1895C55.9707 18.5508 56.5322 18.9316 56.9229 19.332C57.3232 19.7227 57.6748 20.2451 57.9775 20.8994C58.2803 21.5439 58.4316 22.2666 58.4316 23.0674C58.4316 24.1221 58.2217 25.0596 57.8018 25.8799C57.3818 26.6904 56.8057 27.3398 56.0732 27.8281C55.3506 28.3164 54.5352 28.6826 53.627 28.9268C52.7285 29.1709 51.7568 29.293 50.7119 29.293ZM71.8203 14.1611H75.4824V29H72.0107L71.9082 27.1689C71.4102 27.8525 70.7607 28.3799 69.96 28.751C69.1689 29.1123 68.2754 29.293 67.2793 29.293C65.5703 29.293 64.2422 28.8486 63.2949 27.96C62.3574 27.0615 61.8887 25.792 61.8887 24.1514V14.1611H65.5508V23.3604C65.5508 24.3662 65.8145 25.1133 66.3418 25.6016C66.8789 26.0801 67.5674 26.3193 68.4072 26.3193C69.4033 26.3193 70.2188 26.0166 70.8535 25.4111C71.4883 24.8057 71.8105 23.8584 71.8203 22.5693V14.1611ZM88.5342 13.8682C89.501 13.8682 90.4141 14.0488 91.2734 14.4102C92.1328 14.7617 92.8848 15.2646 93.5293 15.9189C94.1738 16.5635 94.6816 17.3789 95.0527 18.3652C95.4238 19.3418 95.6094 20.4209 95.6094 21.6025C95.6094 22.7842 95.4238 23.8682 95.0527 24.8545C94.6816 25.8311 94.1738 26.6465 93.5293 27.3008C92.8848 27.9453 92.1328 28.4482 91.2734 28.8096C90.4141 29.1611 89.501 29.3369 88.5342 29.3369C87.499 29.3369 86.5566 29.1221 85.707 28.6924C84.8574 28.2627 84.2129 27.6719 83.7734 26.9199V36.3096H80.1113V14.1611H83.5977L83.7002 16.417C84.1299 15.6162 84.7744 14.9912 85.6338 14.542C86.4932 14.0928 87.46 13.8682 88.5342 13.8682ZM87.7285 26.2754C88.9297 26.2754 89.9307 25.8506 90.7314 25.001C91.542 24.1514 91.9473 23.0186 91.9473 21.6025C91.9473 20.1865 91.542 19.0586 90.7314 18.2188C89.9307 17.3691 88.9297 16.9443 87.7285 16.9443C86.5176 16.9443 85.5068 17.3838 84.6963 18.2627C83.8857 19.1318 83.4805 20.2451 83.4805 21.6025C83.4805 22.9697 83.8857 24.0928 84.6963 24.9717C85.5068 25.8408 86.5176 26.2754 87.7285 26.2754ZM112.719 21.3389L112.66 22.2471H101.469C101.537 23.5752 101.957 24.5957 102.729 25.3086C103.5 26.0117 104.457 26.3633 105.6 26.3633C106.4 26.3633 107.104 26.1729 107.709 25.792C108.324 25.4111 108.793 24.8643 109.115 24.1514L112.455 24.6934C111.957 26.1387 111.098 27.2666 109.877 28.0771C108.656 28.8877 107.24 29.293 105.629 29.293C103.275 29.293 101.396 28.6094 99.9893 27.2422C98.583 25.875 97.8799 23.9902 97.8799 21.5879C97.8799 19.1953 98.583 17.3105 99.9893 15.9336C101.405 14.5469 103.246 13.8535 105.512 13.8535C106.557 13.8535 107.509 14.0098 108.368 14.3223C109.237 14.625 109.994 15.0791 110.639 15.6846C111.293 16.2803 111.801 17.0615 112.162 18.0283C112.523 18.9854 112.709 20.0889 112.719 21.3389ZM105.526 16.4902C104.472 16.4902 103.603 16.7686 102.919 17.3252C102.235 17.8721 101.791 18.6973 101.586 19.8008H109.086C108.988 18.7266 108.617 17.9062 107.973 17.3398C107.338 16.7734 106.522 16.4902 105.526 16.4902ZM119.691 16.5928C120.072 15.8701 120.707 15.2598 121.596 14.7617C122.494 14.2539 123.461 13.9951 124.496 13.9854V17.2959C122.904 17.2959 121.732 17.6182 120.98 18.2627C120.229 18.8975 119.853 19.9912 119.853 21.5439V29H116.176V14.1611H119.691V16.5928ZM136.2 8.00879C138.153 8.00879 139.73 8.65332 140.932 9.94238C142.133 11.2217 142.733 12.8037 142.733 14.6885C142.733 16.5928 142.133 18.165 140.932 19.4053C139.74 20.6455 138.163 21.2656 136.2 21.2656H131.527V29H127.719V8.00879H136.2ZM135.585 18.0576C136.708 18.0576 137.562 17.75 138.148 17.1348C138.744 16.5195 139.042 15.6846 139.042 14.6299C139.042 13.6045 138.744 12.7793 138.148 12.1543C137.553 11.5293 136.698 11.2168 135.585 11.2168H131.527V18.0576H135.585ZM157.06 24.8398C157.06 26.5293 157.187 27.7842 157.44 28.6045V29H153.969L153.617 27.3301C153.08 27.9844 152.382 28.4775 151.522 28.8096C150.673 29.1318 149.784 29.293 148.856 29.293C148.241 29.293 147.67 29.2148 147.143 29.0586C146.615 28.9121 146.132 28.6826 145.692 28.3701C145.253 28.0576 144.906 27.6279 144.652 27.0811C144.408 26.5342 144.286 25.8994 144.286 25.1768C144.286 24.4346 144.413 23.79 144.667 23.2432C144.921 22.6963 145.302 22.2471 145.81 21.8955C146.327 21.5342 146.889 21.2412 147.494 21.0166C148.1 20.792 148.832 20.5918 149.691 20.416L152.167 19.9033C152.665 19.7959 153.021 19.6445 153.236 19.4492C153.451 19.2539 153.559 18.9902 153.559 18.6582C153.559 18.2578 153.48 17.9111 153.324 17.6182C153.168 17.3154 152.953 17.0859 152.68 16.9297C152.416 16.7637 152.128 16.6465 151.815 16.5781C151.503 16.5 151.171 16.4609 150.819 16.4609C149.013 16.4609 147.987 17.2617 147.743 18.8633L144.491 18.248C145.067 15.3379 147.24 13.8828 151.01 13.8828C151.645 13.8828 152.235 13.9268 152.782 14.0146C153.329 14.1025 153.871 14.2686 154.408 14.5127C154.955 14.7568 155.414 15.0693 155.785 15.4502C156.166 15.8311 156.474 16.3389 156.708 16.9736C156.942 17.6084 157.06 18.3408 157.06 19.1709V24.8398ZM149.984 26.7588C151.166 26.7588 152.084 26.373 152.738 25.6016C153.402 24.8301 153.734 23.6436 153.734 22.042L150.131 22.9648C149.359 23.1309 148.773 23.3652 148.373 23.668C147.982 23.9609 147.787 24.3809 147.787 24.9277C147.787 25.5234 147.992 25.9775 148.402 26.29C148.812 26.6025 149.34 26.7588 149.984 26.7588ZM170.668 14.1611H174.462L165.482 35.9873H161.762L165.014 28.4727L159.022 14.1611H163.021L166.757 24.4736L170.668 14.1611Z" fill="white"/>
</svg>
